<svg width="245" height="40" viewBox="0 0 245 40" fill="none" xmlns="http://www.w3.org/2000/svg">
<g clipPath="url(#clip0_8_110)">
<path d="M26.6667 0H13.3333V13.3333H26.6667V0Z" fill="#3EDCFF"/>
<path d="M40 26.6667H26.6667V40H40V26.6667Z" fill="#0AB3D7"/>
<path d="M26.6667 26.6667H13.3333V40H26.6667V26.6667Z" fill="#06829D"/>
<path d="M13.3333 26.6667H0V40H13.3333V26.6667Z" fill="#0BB7B7"/>
<path d="M40 13.3333H26.6667V26.6666H40V13.3333Z" fill="#086C96"/>
</g>
<path d="M95.2094 13.9362V32.6936H91.3203V30.4809C90.7062 31.2525 89.8988 31.8652 88.8981 32.3192C87.9202 32.7504 86.874 32.966 85.7596 32.966C84.2812 32.966 82.9507 32.6596 81.7681 32.0468C80.6082 31.434 79.6871 30.5262 79.0048 29.3234C78.3452 28.1206 78.0154 26.6681 78.0154 24.966V13.9362H81.8704V24.3872C81.8704 26.0667 82.2912 27.3603 83.1327 28.2681C83.9742 29.1532 85.1227 29.5957 86.5783 29.5957C88.0339 29.5957 89.1824 29.1532 90.0239 28.2681C90.8882 27.3603 91.3203 26.0667 91.3203 24.3872V13.9362H95.2094Z" fill="white"/>
<path d="M104.878 17.1021V27.4851C104.878 28.1887 105.037 28.6993 105.356 29.017C105.697 29.3121 106.265 29.4596 107.062 29.4596H109.45V32.6936H106.379C104.628 32.6936 103.286 32.2851 102.354 31.4681C101.421 30.6511 100.955 29.3234 100.955 27.4851V17.1021H98.7374V13.9362H100.955V9.27234H104.878V13.9362H109.45V17.1021H104.878Z" fill="white"/>
<path d="M121.188 33C119.414 33 117.81 32.6028 116.377 31.8085C114.944 30.9915 113.819 29.8567 113 28.4043C112.181 26.9291 111.772 25.227 111.772 23.2979C111.772 21.3915 112.193 19.7007 113.034 18.2255C113.876 16.7504 115.024 15.6156 116.48 14.8213C117.935 14.027 119.561 13.6298 121.358 13.6298C123.155 13.6298 124.781 14.027 126.237 14.8213C127.692 15.6156 128.841 16.7504 129.682 18.2255C130.524 19.7007 130.944 21.3915 130.944 23.2979C130.944 25.2043 130.512 26.895 129.648 28.3702C128.784 29.8454 127.601 30.9915 126.1 31.8085C124.622 32.6028 122.984 33 121.188 33ZM121.188 29.6298C122.188 29.6298 123.121 29.3915 123.985 28.9149C124.872 28.4383 125.588 27.7234 126.134 26.7702C126.68 25.817 126.953 24.6596 126.953 23.2979C126.953 21.9362 126.691 20.7901 126.168 19.8596C125.645 18.9064 124.952 18.1915 124.087 17.7149C123.223 17.2383 122.291 17 121.29 17C120.289 17 119.357 17.2383 118.492 17.7149C117.651 18.1915 116.98 18.9064 116.48 19.8596C115.979 20.7901 115.729 21.9362 115.729 23.2979C115.729 25.3177 116.241 26.8837 117.264 27.9957C118.311 29.0851 119.618 29.6298 121.188 29.6298Z" fill="white"/>
<path d="M157.544 13.6298C159.022 13.6298 160.341 13.9362 161.501 14.5489C162.684 15.1617 163.605 16.0695 164.265 17.2723C164.947 18.4752 165.288 19.9277 165.288 21.6298V32.6936H161.433V22.2085C161.433 20.5291 161.012 19.2468 160.171 18.3617C159.329 17.4539 158.181 17 156.725 17C155.27 17 154.11 17.4539 153.245 18.3617C152.404 19.2468 151.983 20.5291 151.983 22.2085V32.6936H148.128V22.2085C148.128 20.5291 147.707 19.2468 146.866 18.3617C146.024 17.4539 144.876 17 143.42 17C141.965 17 140.805 17.4539 139.94 18.3617C139.099 19.2468 138.678 20.5291 138.678 22.2085V32.6936H134.789V13.9362H138.678V16.0809C139.315 15.3092 140.122 14.7078 141.1 14.2766C142.078 13.8454 143.125 13.6298 144.239 13.6298C145.74 13.6298 147.082 13.9475 148.265 14.583C149.447 15.2184 150.357 16.1376 150.994 17.3404C151.562 16.2057 152.449 15.3092 153.655 14.6511C154.86 13.9702 156.156 13.6298 157.544 13.6298Z" fill="white"/>
<path d="M168.94 23.2298C168.94 21.3461 169.327 19.678 170.1 18.2255C170.896 16.7731 171.965 15.6496 173.307 14.8553C174.672 14.0383 176.173 13.6298 177.81 13.6298C179.289 13.6298 180.574 13.9248 181.665 14.5149C182.78 15.0823 183.667 15.7972 184.326 16.6596V13.9362H188.25V32.6936H184.326V29.9021C183.667 30.7872 182.768 31.5248 181.631 32.1149C180.494 32.705 179.198 33 177.742 33C176.127 33 174.649 32.5915 173.307 31.7745C171.965 30.9348 170.896 29.7773 170.1 28.3021C169.327 26.8043 168.94 25.1135 168.94 23.2298ZM184.326 23.2979C184.326 22.0043 184.053 20.8809 183.508 19.9277C182.984 18.9745 182.291 18.2482 181.427 17.7489C180.562 17.2496 179.63 17 178.629 17C177.628 17 176.696 17.2496 175.832 17.7489C174.967 18.2255 174.262 18.9404 173.717 19.8936C173.193 20.8241 172.932 21.9362 172.932 23.2298C172.932 24.5234 173.193 25.6582 173.717 26.634C174.262 27.6099 174.967 28.3589 175.832 28.8809C176.719 29.3801 177.651 29.6298 178.629 29.6298C179.63 29.6298 180.562 29.3801 181.427 28.8809C182.291 28.3816 182.984 27.6553 183.508 26.7021C184.053 25.7262 184.326 24.5915 184.326 23.2979Z" fill="white"/>
<path d="M197.895 17.1021V27.4851C197.895 28.1887 198.054 28.6993 198.373 29.017C198.714 29.3121 199.282 29.4596 200.078 29.4596H202.466V32.6936H199.396C197.645 32.6936 196.303 32.2851 195.371 31.4681C194.438 30.6511 193.972 29.3234 193.972 27.4851V17.1021H191.754V13.9362H193.972V9.27234H197.895V13.9362H202.466V17.1021H197.895Z" fill="white"/>
<path d="M214.204 33C212.43 33 210.827 32.6028 209.394 31.8085C207.961 30.9915 206.836 29.8567 206.017 28.4043C205.198 26.9291 204.789 25.227 204.789 23.2979C204.789 21.3915 205.209 19.7007 206.051 18.2255C206.892 16.7504 208.041 15.6156 209.497 14.8213C210.952 14.027 212.578 13.6298 214.375 13.6298C216.172 13.6298 217.798 14.027 219.254 14.8213C220.709 15.6156 221.858 16.7504 222.699 18.2255C223.541 19.7007 223.961 21.3915 223.961 23.2979C223.961 25.2043 223.529 26.895 222.665 28.3702C221.801 29.8454 220.618 30.9915 219.117 31.8085C217.639 32.6028 216.001 33 214.204 33ZM214.204 29.6298C215.205 29.6298 216.138 29.3915 217.002 28.9149C217.889 28.4383 218.605 27.7234 219.151 26.7702C219.697 25.817 219.97 24.6596 219.97 23.2979C219.97 21.9362 219.708 20.7901 219.185 19.8596C218.662 18.9064 217.969 18.1915 217.104 17.7149C216.24 17.2383 215.308 17 214.307 17C213.306 17 212.374 17.2383 211.509 17.7149C210.668 18.1915 209.997 18.9064 209.497 19.8596C208.996 20.7901 208.746 21.9362 208.746 23.2979C208.746 25.3177 209.258 26.8837 210.281 27.9957C211.327 29.0851 212.635 29.6298 214.204 29.6298Z" fill="white"/>
<path d="M237.29 13.6298C238.768 13.6298 240.087 13.9362 241.247 14.5489C242.43 15.1617 243.351 16.0695 244.011 17.2723C244.67 18.4752 245 19.9277 245 21.6298V32.6936H241.145V22.2085C241.145 20.5291 240.724 19.2468 239.883 18.3617C239.041 17.4539 237.893 17 236.437 17C234.982 17 233.822 17.4539 232.957 18.3617C232.116 19.2468 231.695 20.5291 231.695 22.2085V32.6936H227.806V13.9362H231.695V16.0809C232.332 15.3092 233.139 14.7078 234.117 14.2766C235.118 13.8454 236.176 13.6298 237.29 13.6298Z" fill="white"/>
<path d="M58.7655 27.8596L57.0597 32.6936H53L61.4947 9H65.9979L74.4925 32.6936H70.3987L68.6929 27.8596H62L63 24.6936H67.6013L63.7463 13.6979L59.8571 24.6936L58.7655 27.8596Z" fill="white"/>
<defs>
<clipPath id="clip0_8_110">
<rect width="40" height="40" fill="white"/>
</clipPath>
</defs>
</svg>
